<svg xmlns="http://www.w3.org/2000/svg" fill="none" viewBox="0 0 32 24">
    <path fill="#3422FF"
          d="M11.273 23.426c-2.235 0-4.157-.473-5.767-1.42-1.6-.957-2.832-2.282-3.694-3.978C.96 16.333.534 14.383.534 12.176c0-2.235.431-4.195 1.293-5.88.87-1.696 2.107-3.017 3.707-3.964 1.6-.956 3.504-1.434 5.71-1.434 1.904 0 3.57.345 5 1.037 1.43.691 2.562 1.662 3.395 2.912.834 1.25 1.293 2.717 1.378 4.403h-5.71c-.161-1.089-.587-1.965-1.279-2.628-.681-.672-1.576-1.008-2.684-1.008-.938 0-1.757.255-2.458.767-.69.502-1.23 1.235-1.619 2.201-.388.966-.582 2.136-.582 3.509 0 1.392.19 2.576.568 3.551.388.975.933 1.719 1.633 2.23.701.512 1.52.767 2.458.767.691 0 1.311-.142 1.86-.426a3.595 3.595 0 0 0 1.378-1.236c.37-.549.611-1.207.725-1.974h5.71c-.095 1.666-.55 3.134-1.364 4.403-.804 1.26-1.917 2.245-3.338 2.955-1.42.71-3.101 1.065-5.042 1.065Zm17.155-.057a3.318 3.318 0 0 1-2.415-.994 3.318 3.318 0 0 1-.994-2.415c0-.928.332-1.723.995-2.386a3.318 3.318 0 0 1 2.414-.995c.91 0 1.705.332 2.387.995.681.663 1.022 1.458 1.022 2.386 0 .625-.16 1.198-.483 1.719a3.673 3.673 0 0 1-1.235 1.236 3.255 3.255 0 0 1-1.69.454Z" />
</svg>